<?xml version="1.0" encoding="UTF-8" standalone="no"?>
<!-- Created with Inkscape (http://www.inkscape.org/) -->

<svg
   version="1.1"
   id="svg9"
   xml:space="preserve"
   width="133.33333"
   height="133.33333"
   viewBox="0 0 133.33333 133.33333"
   sodipodi:docname="Alert_Salvage.svg"
   inkscape:version="1.1.1 (3bf5ae0d25, 2021-09-20)"
   inkscape:export-filename="C:\Users\micro\Documents\Projects\destination-ares\Assets\Art\Misc &amp; HUD\Alert_Salvage.png"
   inkscape:export-xdpi="71.791267"
   inkscape:export-ydpi="71.791267"
   xmlns:inkscape="http://www.inkscape.org/namespaces/inkscape"
   xmlns:sodipodi="http://sodipodi.sourceforge.net/DTD/sodipodi-0.dtd"
   xmlns="http://www.w3.org/2000/svg"
   xmlns:svg="http://www.w3.org/2000/svg"><defs
     id="defs13"><inkscape:path-effect
       effect="fillet_chamfer"
       id="path-effect74245"
       is_visible="true"
       lpeversion="1"
       satellites_param="C,0,0,1,0,10,0,1 @ C,0,0,1,0,10,0,1 @ C,0,0,1,0,10,0,1 @ C,0,0,1,0,10,0,1"
       unit="px"
       method="auto"
       mode="F"
       radius="10"
       chamfer_steps="1"
       flexible="false"
       use_knot_distance="true"
       apply_no_radius="true"
       apply_with_radius="true"
       only_selected="false"
       hide_knots="false" /><inkscape:path-effect
       effect="fillet_chamfer"
       id="path-effect74224"
       is_visible="true"
       lpeversion="1"
       satellites_param="F,0,0,1,0,0,0,1 @ F,0,0,1,0,0,0,1 @ F,0,0,1,0,0,0,1 @ F,0,0,1,0,0,0,1"
       unit="px"
       method="auto"
       mode="F"
       radius="10"
       chamfer_steps="1"
       flexible="false"
       use_knot_distance="true"
       apply_no_radius="true"
       apply_with_radius="true"
       only_selected="false"
       hide_knots="false" /><clipPath
       clipPathUnits="userSpaceOnUse"
       id="clipPath27"><path
         d="M 0,100 H 100 V 0 H 0 Z"
         id="path25" /></clipPath><clipPath
       clipPathUnits="userSpaceOnUse"
       id="clipPath165"><path
         d="M 0,100 H 100 V 0 H 0 Z"
         id="path163" /></clipPath></defs><sodipodi:namedview
     id="namedview11"
     pagecolor="#505050"
     bordercolor="#eeeeee"
     borderopacity="1"
     inkscape:pageshadow="0"
     inkscape:pageopacity="0"
     inkscape:pagecheckerboard="0"
     showgrid="false"
     inkscape:zoom="5.8725002"
     inkscape:cx="60.876967"
     inkscape:cy="53.043846"
     inkscape:window-width="1920"
     inkscape:window-height="1001"
     inkscape:window-x="-9"
     inkscape:window-y="-9"
     inkscape:window-maximized="1"
     inkscape:current-layer="g15"
     inkscape:snap-midpoints="false"
     inkscape:snap-page="false"
     showguides="true"
     inkscape:guide-bbox="true"
     inkscape:snap-global="true"
     inkscape:snap-object-midpoints="true"><sodipodi:guide
       position="50.234141,153.42699"
       orientation="1,0"
       id="guide64431" /><sodipodi:guide
       position="-34.908471,83.099189"
       orientation="0,-1"
       id="guide64433" /></sodipodi:namedview><g
     id="g15"
     inkscape:groupmode="layer"
     inkscape:label="Alert_Warning"
     transform="matrix(1.3333333,0,0,-1.3333333,0,133.33333)"><path
       id="path73824"
       d="M 3.40909,38.409089 V 86.59091 l 10,10 h 48.18182 l 10,-10 V 38.409089 l -10,-10 H 13.40909 Z"
       style="fill:#9b2000;fill-opacity:1;stroke:#ff5326;stroke-width:6.81818;stroke-linejoin:miter;stroke-miterlimit:4;stroke-dasharray:none;stroke-opacity:1;paint-order:normal"
       inkscape:path-effect="#path-effect74245"
       inkscape:original-d="M 3.40909,28.409089 V 96.59091 H 71.59091 V 28.409089 Z" /><path
       d="m 23.072072,44.404318 c -2.352948,0 -4.260541,1.908093 -4.260541,4.261539 0,2.353446 1.907593,4.261539 4.260541,4.261539 2.353945,0 4.261539,-1.908093 4.261539,-4.261539 0,-2.353446 -1.907594,-4.261539 -4.261539,-4.261539 m 17.598235,26.899311 1.719078,6.415498 c 0.475277,1.771444 3.318464,2.548445 5.089907,2.074165 l 12.85693,-4.458033 c -0.265317,1.466228 -2.209815,5.96416 -3.579792,6.743654 -6.103301,3.478553 -13.582563,5.188156 -18.77022,0 -3.480547,-3.480547 -4.60665,-8.411365 -3.414717,-12.847454 -0.11271,-0.09875 0.941579,-1.958962 0.870263,-2.030777 L 24.836533,56.593964 c -0.0394,-0.03839 -2.326016,0.735608 -2.382372,0.675263 -4.479478,-0.317683 -8.016879,-4.043598 -8.016879,-8.60337 0,-4.768734 3.866056,-8.63479 8.63479,-8.63479 4.453544,0 8.118119,3.373323 8.582424,7.704184 0.121687,0.10473 -0.52066,2.630234 -0.444357,2.706538 l 10.751845,10.751845 c 0.07181,0.07181 2.347961,-0.965517 2.447705,-0.853306 4.435091,-1.191934 12.377661,2.953404 12.377661,2.953404 l 0.462311,0.780492 -13.208026,2.887573 c -1.770945,0.475277 -3.846108,2.569889 -3.371328,4.341832"
       style="fill:#ffffff;fill-opacity:1;fill-rule:nonzero;stroke:none;stroke-width:1.72478;stroke-miterlimit:4;stroke-dasharray:none;stroke-opacity:1"
       id="path169"
       inkscape:export-filename="C:\Users\micro\Documents\Projects\destination-ares\Assets\Art\Misc &amp; HUD\path169.png"
       inkscape:export-xdpi="71.791267"
       inkscape:export-ydpi="71.791267" /></g></svg>
