<?xml version="1.0" encoding="UTF-8" standalone="no"?>
<!-- Created with Inkscape (http://www.inkscape.org/) -->

<svg
   version="1.1"
   id="svg2"
   xml:space="preserve"
   width="133.33333"
   height="133.33333"
   viewBox="0 0 133.33333 133.33333"
   sodipodi:docname="Alert_Overdrive.svg"
   inkscape:export-filename="C:\Users\micro\Documents\Projects\destination-ares\Assets\Art\Misc &amp; HUD\Alert_Overdrive.png"
   inkscape:export-xdpi="96"
   inkscape:export-ydpi="96"
   inkscape:version="1.1.1 (3bf5ae0d25, 2021-09-20)"
   xmlns:inkscape="http://www.inkscape.org/namespaces/inkscape"
   xmlns:sodipodi="http://sodipodi.sourceforge.net/DTD/sodipodi-0.dtd"
   xmlns="http://www.w3.org/2000/svg"
   xmlns:svg="http://www.w3.org/2000/svg"><defs
     id="defs6"><clipPath
       clipPathUnits="userSpaceOnUse"
       id="clipPath16"><path
         d="M 0,100 H 100 V 0 H 0 Z"
         id="path14" /></clipPath></defs><sodipodi:namedview
     id="namedview4"
     pagecolor="#ffffff"
     bordercolor="#666666"
     borderopacity="1.0"
     inkscape:pageshadow="2"
     inkscape:pageopacity="0.0"
     inkscape:pagecheckerboard="0"
     showgrid="false"
     inkscape:zoom="6.0900002"
     inkscape:cx="57.060753"
     inkscape:cy="59.852214"
     inkscape:window-width="1920"
     inkscape:window-height="1001"
     inkscape:window-x="-9"
     inkscape:window-y="-9"
     inkscape:window-maximized="1"
     inkscape:current-layer="g12"
     inkscape:snap-object-midpoints="false" /><g
     id="g8"
     inkscape:groupmode="layer"
     inkscape:label="Alert_Overdrive"
     transform="matrix(1.3333333,0,0,-1.3333333,0,133.33333)"><g
       id="g10"><g
         id="g12"
         clip-path="url(#clipPath16)"><g
           id="g18"
           transform="translate(95,50)"
           inkscape:export-filename="C:\Users\micro\Documents\Projects\destination-ares\Art\Alert_Overdrive.png"
           inkscape:export-xdpi="72.000183"
           inkscape:export-ydpi="72.000183"><path
             d="m 0,0 c 0,-24.853 -20.147,-45 -45,-45 -24.853,0 -45,20.147 -45,45 0,24.853 20.147,45 45,45 C -20.147,45 0,24.853 0,0"
             style="fill:#034362;fill-opacity:1;fill-rule:nonzero;stroke:none"
             id="path20" /></g><g
           id="g22"
           transform="translate(0.146,86.6406)"
           inkscape:export-filename="C:\Users\micro\Documents\Projects\destination-ares\Art\Alert_Overdrive.png"
           inkscape:export-xdpi="72.000183"
           inkscape:export-ydpi="72.000183"><path
             d="M 0,0 33.46,8.966 24.495,-24.495 Z"
             style="fill:#2694ca;fill-opacity:1;fill-rule:nonzero;stroke:none"
             id="path24" /></g><g
           id="g26"
           transform="translate(50)"
           inkscape:export-filename="C:\Users\micro\Documents\Projects\destination-ares\Art\Alert_Overdrive.png"
           inkscape:export-xdpi="72.000183"
           inkscape:export-ydpi="72.000183"><path
             d="M 0,0 C -13.785,0 -26.285,5.607 -35.339,14.661 -44.393,23.715 -50,36.215 -50,50 c 0,13.785 5.607,26.285 14.661,35.339 l 7.068,-7.068 C -35.514,71.028 -40,61.028 -40,50 -40,38.973 -35.514,28.973 -28.271,21.729 -21.028,14.486 -11.028,10 0,10 Z"
             style="fill:#2694ca;fill-opacity:1;fill-rule:nonzero;stroke:none"
             id="path28" /></g><g
           id="g30"
           transform="translate(-1.7905,84.0332)"
           inkscape:export-filename="C:\Users\micro\Documents\Projects\destination-ares\Art\Alert_Overdrive.png"
           inkscape:export-xdpi="72.000183"
           inkscape:export-ydpi="72.000183"><path
             d="m 0,0 -7.221,-1.265 29.78,-29.78 1.266,7.221 z"
             style="fill:#2694ca;fill-opacity:1;fill-rule:nonzero;stroke:none"
             id="path32" /></g><g
           id="g34"
           transform="translate(99.8428,13.3604)"
           inkscape:export-filename="C:\Users\micro\Documents\Projects\destination-ares\Art\Alert_Overdrive.png"
           inkscape:export-xdpi="72.000183"
           inkscape:export-ydpi="72.000183"><path
             d="m 0,0 -33.46,-8.966 8.965,33.461 z"
             style="fill:#2694ca;fill-opacity:1;fill-rule:nonzero;stroke:none"
             id="path36" /></g><g
           id="g38"
           transform="translate(50,100)"
           inkscape:export-filename="C:\Users\micro\Documents\Projects\destination-ares\Art\Alert_Overdrive.png"
           inkscape:export-xdpi="72.000183"
           inkscape:export-ydpi="72.000183"><path
             d="m 0,0 c 14,0 26.279,-5.607 35.334,-14.661 9.054,-9.054 14.658,-21.554 14.657,-35.339 0,-13.784 -5.609,-26.284 -14.662,-35.338 l -7.069,7.068 c 7.244,7.243 11.729,17.243 11.729,28.27 0,11.027 -4.48,21.027 -11.723,28.271 C 21.023,-14.486 11,-10 0,-10 Z"
             style="fill:#2694ca;fill-opacity:1;fill-rule:nonzero;stroke:none"
             id="path40" /></g><g
           id="g42"
           transform="translate(101.7793,15.9678)"
           inkscape:export-filename="C:\Users\micro\Documents\Projects\destination-ares\Art\Alert_Overdrive.png"
           inkscape:export-xdpi="72.000183"
           inkscape:export-ydpi="72.000183"><path
             d="m 0,0 7.221,1.265 -29.78,29.78 -1.265,-7.221 z"
             style="fill:#2694ca;fill-opacity:1;fill-rule:nonzero;stroke:none"
             id="path44" /></g><g
           id="g173"
           transform="matrix(0.54653043,0,0,0.54653043,-1.5569355,38.490553)"><g
             id="g79569"
             transform="translate(61.247124,11.357214)"><path
               d="m 0,0 h 38.913 l 4.998,59.403 z"
               style="fill:#ffffff;fill-opacity:1;fill-rule:nonzero;stroke:none"
               id="path79571" /></g><g
             id="g79573"
             transform="translate(88.510824,30.358014)"><path
               d="m 0,0 -4.965,-59 h 0.264 L 38.912,0 Z"
               style="fill:#ffffff;fill-opacity:1;fill-rule:nonzero;stroke:none"
               id="path79575" /></g></g></g></g></g></svg>
