<?xml version="1.0" encoding="UTF-8" standalone="no"?>
<!-- Created with Inkscape (http://www.inkscape.org/) -->

<svg
   width="600"
   height="900"
   viewBox="0 0 158.75 238.12501"
   version="1.1"
   id="svg9989"
   inkscape:version="1.1.1 (3bf5ae0d25, 2021-09-20)"
   sodipodi:docname="DA-logo-over-banner-gradient.svg"
   inkscape:export-filename="C:\Users\micro\Documents\Projects\destination-ares\Art\DA-logo-over-banner-gradient_600x900_alt.png"
   inkscape:export-xdpi="96"
   inkscape:export-ydpi="96"
   xmlns:inkscape="http://www.inkscape.org/namespaces/inkscape"
   xmlns:sodipodi="http://sodipodi.sourceforge.net/DTD/sodipodi-0.dtd"
   xmlns:xlink="http://www.w3.org/1999/xlink"
   xmlns="http://www.w3.org/2000/svg"
   xmlns:svg="http://www.w3.org/2000/svg">
  <sodipodi:namedview
     id="namedview9991"
     pagecolor="#505050"
     bordercolor="#eeeeee"
     borderopacity="1"
     inkscape:pageshadow="0"
     inkscape:pageopacity="0"
     inkscape:pagecheckerboard="0"
     inkscape:document-units="mm"
     showgrid="false"
     width="600mm"
     units="px"
     inkscape:zoom="0.71446409"
     inkscape:cx="224.6439"
     inkscape:cy="449.98763"
     inkscape:window-width="1920"
     inkscape:window-height="991"
     inkscape:window-x="-9"
     inkscape:window-y="-9"
     inkscape:window-maximized="1"
     inkscape:current-layer="layer1" />
  <defs
     id="defs9986">
    <linearGradient
       x1="0"
       y1="0"
       x2="1"
       y2="0"
       gradientUnits="userSpaceOnUse"
       gradientTransform="matrix(-4.5e-6,-101.81641,-101.81641,4.5e-6,878.65625,146.75781)"
       spreadMethod="pad"
       id="linearGradient11682">
      <stop
         style="stop-opacity:1;stop-color:#390038"
         offset="0"
         id="stop11676" />
      <stop
         style="stop-opacity:1;stop-color:#000000"
         offset="0.81001478"
         id="stop11678" />
      <stop
         style="stop-opacity:1;stop-color:#f13200"
         offset="1"
         id="stop11680" />
    </linearGradient>
    <linearGradient
       x1="0"
       y1="0"
       x2="1"
       y2="0"
       gradientUnits="userSpaceOnUse"
       gradientTransform="matrix(-4.5e-6,-101.81641,-101.81641,4.5e-6,878.65625,146.75781)"
       spreadMethod="pad"
       id="linearGradient10340">
      <stop
         style="stop-opacity:1;stop-color:#ffffff"
         offset="0"
         id="stop10653" />
      <stop
         style="stop-opacity:1;stop-color:#ffffff"
         offset="0.79908746"
         id="stop10655" />
      <stop
         style="stop-opacity:1;stop-color:#f13200"
         offset="1"
         id="stop10657" />
    </linearGradient>
    <clipPath
       clipPathUnits="userSpaceOnUse"
       id="clipPath10009">
      <path
         d="M 0,120 H 100 V 0 H 0 Z"
         id="path10007" />
    </clipPath>
    <clipPath
       clipPathUnits="userSpaceOnUse"
       id="clipPath10019">
      <path
         d="M 0,0 H 100 V 120 H 0 Z"
         id="path10017" />
    </clipPath>
    <radialGradient
       fx="0"
       fy="0"
       cx="0"
       cy="0"
       r="1"
       gradientUnits="userSpaceOnUse"
       gradientTransform="matrix(72.567841,0,0,-78.642685,55,59.75)"
       spreadMethod="pad"
       id="radialGradient10033">
      <stop
         style="stop-opacity:1;stop-color:#ffffff"
         offset="0"
         id="stop10029" />
      <stop
         style="stop-opacity:0;stop-color:#ffffff"
         offset="1"
         id="stop10031" />
    </radialGradient>
    <mask
       maskUnits="userSpaceOnUse"
       x="0"
       y="0"
       width="1"
       height="1"
       id="mask10035">
      <g
         id="g10045">
        <g
           id="g10043">
          <g
             id="g10041">
            <g
               id="g10039">
              <path
                 d="M -32768,32767 H 32767 V -32768 H -32768 Z"
                 style="fill:url(#radialGradient10033);stroke:none"
                 id="path10037" />
            </g>
          </g>
        </g>
      </g>
    </mask>
    <radialGradient
       fx="0"
       fy="0"
       cx="0"
       cy="0"
       r="1"
       gradientUnits="userSpaceOnUse"
       gradientTransform="matrix(72.567841,0,0,-78.642685,55,59.75)"
       spreadMethod="pad"
       id="radialGradient10055">
      <stop
         style="stop-opacity:1;stop-color:#00080c"
         offset="0"
         id="stop10051" />
      <stop
         style="stop-opacity:1;stop-color:#00080c"
         offset="1"
         id="stop10053" />
    </radialGradient>
    <clipPath
       clipPathUnits="userSpaceOnUse"
       id="clipPath10065">
      <path
         d="m 44.681,29.624 c 0,-13.806 11.193,-25 25.001,-25 v 0 c 13.806,0 25,11.194 25,25 v 0 c 0,13.807 -11.194,25 -25,25 v 0 c -13.808,0 -25.001,-11.193 -25.001,-25"
         id="path10063" />
    </clipPath>
    <linearGradient
       x1="0"
       y1="0"
       x2="1"
       y2="0"
       gradientUnits="userSpaceOnUse"
       gradientTransform="matrix(-2.2e-6,50,50,2.2e-6,69.681641,4.6240234)"
       spreadMethod="pad"
       id="linearGradient10081">
      <stop
         style="stop-opacity:0;stop-color:#ffffff"
         offset="0"
         id="stop10075" />
      <stop
         style="stop-opacity:0;stop-color:#ffffff"
         offset="0.76230771"
         id="stop10077" />
      <stop
         style="stop-opacity:1;stop-color:#ffffff"
         offset="1"
         id="stop10079" />
    </linearGradient>
    <mask
       maskUnits="userSpaceOnUse"
       x="0"
       y="0"
       width="1"
       height="1"
       id="mask10083">
      <g
         id="g10093">
        <g
           id="g10091">
          <g
             id="g10089">
            <g
               id="g10087">
              <path
                 d="M -32768,32767 H 32767 V -32768 H -32768 Z"
                 style="fill:url(#linearGradient10081);stroke:none"
                 id="path10085" />
            </g>
          </g>
        </g>
      </g>
    </mask>
    <linearGradient
       x1="0"
       y1="0"
       x2="1"
       y2="0"
       gradientUnits="userSpaceOnUse"
       gradientTransform="matrix(-2.2e-6,50,50,2.2e-6,69.681641,4.6240234)"
       spreadMethod="pad"
       id="linearGradient10105">
      <stop
         style="stop-opacity:1;stop-color:#f13200"
         offset="0"
         id="stop10099" />
      <stop
         style="stop-opacity:1;stop-color:#f13200"
         offset="0.76230771"
         id="stop10101" />
      <stop
         style="stop-opacity:1;stop-color:#f13200"
         offset="1"
         id="stop10103" />
    </linearGradient>
    <clipPath
       clipPathUnits="userSpaceOnUse"
       id="clipPath10115">
      <path
         d="M 0,120 H 100 V 0 H 0 Z"
         id="path10113" />
    </clipPath>
    <linearGradient
       x1="0"
       y1="0"
       x2="1"
       y2="0"
       gradientUnits="userSpaceOnUse"
       gradientTransform="matrix(-2.36042e-6,54,-54,-2.36042e-6,-25,93)"
       spreadMethod="pad"
       id="linearGradient10123">
      <stop
         style="stop-opacity:1;stop-color:#ffffff"
         offset="0"
         id="stop10119" />
      <stop
         style="stop-opacity:1;stop-color:#ffffff"
         offset="1"
         id="stop10121" />
    </linearGradient>
    <linearGradient
       x1="0"
       y1="0"
       x2="1"
       y2="0"
       gradientUnits="userSpaceOnUse"
       gradientTransform="matrix(-4.5e-6,-101.81641,-101.81641,4.5e-6,49,114.87598)"
       spreadMethod="pad"
       id="linearGradient10145">
      <stop
         style="stop-opacity:1;stop-color:#ffffff"
         offset="0"
         id="stop10139" />
      <stop
         style="stop-opacity:1;stop-color:#ffffff"
         offset="0.79908746"
         id="stop10141" />
      <stop
         style="stop-opacity:1;stop-color:#f13200"
         offset="1"
         id="stop10143" />
    </linearGradient>
    <clipPath
       clipPathUnits="userSpaceOnUse"
       id="clipPath10232">
      <path
         d="M 0,200 H 1200 V 0 H 0 Z"
         id="path10230" />
    </clipPath>
    <linearGradient
       x1="0"
       y1="0"
       x2="1"
       y2="0"
       gradientUnits="userSpaceOnUse"
       gradientTransform="matrix(-53.975052,148.29524,148.29524,53.975052,1000.3594,-56.677734)"
       spreadMethod="pad"
       id="linearGradient10248">
      <stop
         style="stop-opacity:0;stop-color:#ffffff"
         offset="0"
         id="stop10240" />
      <stop
         style="stop-opacity:0;stop-color:#ffffff"
         offset="0.8"
         id="stop10242" />
      <stop
         style="stop-opacity:0;stop-color:#ffffff"
         offset="0.95981749"
         id="stop10244" />
      <stop
         style="stop-opacity:1;stop-color:#ffffff"
         offset="1"
         id="stop10246" />
    </linearGradient>
    <mask
       maskUnits="userSpaceOnUse"
       x="0"
       y="0"
       width="1"
       height="1"
       id="mask10250">
      <g
         id="g10260">
        <g
           id="g10258">
          <g
             id="g10256">
            <g
               id="g10254">
              <path
                 d="M -32768,32767 H 32767 V -32768 H -32768 Z"
                 style="fill:url(#linearGradient10248);stroke:none"
                 id="path10252" />
            </g>
          </g>
        </g>
      </g>
    </mask>
    <linearGradient
       x1="0"
       y1="0"
       x2="1"
       y2="0"
       gradientUnits="userSpaceOnUse"
       gradientTransform="matrix(-53.9751,-148.295,148.295,-53.9751,1000.36,256.6777)"
       spreadMethod="pad"
       id="linearGradient10274">
      <stop
         style="stop-opacity:1;stop-color:#f13200"
         offset="0"
         id="stop10266" />
      <stop
         style="stop-opacity:1;stop-color:#f13200"
         offset="0.8"
         id="stop10268" />
      <stop
         style="stop-opacity:1;stop-color:#f13200"
         offset="0.95981749"
         id="stop10270" />
      <stop
         style="stop-opacity:1;stop-color:#f13200"
         offset="1"
         id="stop10272" />
    </linearGradient>
    <linearGradient
       x1="0"
       y1="0"
       x2="1"
       y2="0"
       gradientUnits="userSpaceOnUse"
       gradientTransform="matrix(-4.5e-6,-101.81641,-101.81641,4.5e-6,878.65625,146.75781)"
       spreadMethod="pad"
       id="linearGradient10340-3">
      <stop
         style="stop-opacity:1;stop-color:#ffffff"
         offset="0"
         id="stop10334" />
      <stop
         style="stop-opacity:1;stop-color:#ffffff"
         offset="0.79908746"
         id="stop10336" />
      <stop
         style="stop-opacity:1;stop-color:#f13200"
         offset="1"
         id="stop10338" />
    </linearGradient>
    <clipPath
       clipPathUnits="userSpaceOnUse"
       id="clipPath10350">
      <path
         d="M 0,200 H 1200 V 0 H 0 Z"
         id="path10348" />
    </clipPath>
    <linearGradient
       inkscape:collect="always"
       xlink:href="#linearGradient11682"
       id="linearGradient10986"
       gradientUnits="userSpaceOnUse"
       x1="71.472572"
       y1="237.00748"
       x2="72.583542"
       y2="0.74064839" />
  </defs>
  <g
     inkscape:label="Layer 1"
     inkscape:groupmode="layer"
     id="layer1">
    <rect
       style="display:inline;opacity:1;fill:url(#linearGradient10986);fill-opacity:1;stroke-width:0.264583"
       id="rect10452"
       width="158.75"
       height="238.125"
       x="5.2321286e-07"
       y="5.2321286e-07" />
    <rect
       style="display:inline;fill:#000000;fill-opacity:1;stroke-width:0.264583;opacity:0.7"
       id="rect10452-0"
       width="158.75"
       height="238.125"
       x="5.7220459e-06"
       y="7.5728167e-06" />
    <g
       id="g9999"
       inkscape:label="DestinationAres Icon"
       transform="matrix(1.0903401,0,0,-1.0903401,18.704593,144.00903)">
      <path
         d="M 0,0 H 100 V 120 H 0 Z"
         style="display:none;fill:#000000;fill-opacity:1;fill-rule:nonzero;stroke:none"
         id="path10001" />
      <g
         id="g10003"
         style="display:inline">
        <g
           id="g10005"
           clip-path="url(#clipPath10009)">
          <path
             d="m 154.5,-39.75 h -200 v 200 h 200 z"
             style="fill:none;stroke:#000000;stroke-width:1;stroke-linecap:butt;stroke-linejoin:miter;stroke-miterlimit:10;stroke-dasharray:none;stroke-opacity:1"
             id="path10011" />
        </g>
      </g>
      <g
         id="g10013"
         inkscape:label="g10013"
         style="display:inline">
        <g
           id="g10015"
           clip-path="url(#clipPath10019)"
           style="display:none">
          <g
             id="g10021"
             style="display:inline">
            <g
               id="g10023"
               style="display:inline" />
            <g
               id="g10047"
               mask="url(#mask10035)"
               style="display:inline">
              <g
                 id="g10049">
                <path
                   d="M 0,0 H 100 V 120 H 0 Z"
                   style="fill:url(#radialGradient10055);stroke:none"
                   id="path10057" />
              </g>
            </g>
          </g>
        </g>
      </g>
      <g
         id="g10059"
         style="display:inline">
        <g
           id="g10061"
           clip-path="url(#clipPath10065)">
          <g
             id="g10067">
            <g
               id="g10069" />
            <g
               id="g10095"
               mask="url(#mask10083)">
              <g
                 id="g10097">
                <path
                   d="m 44.681,29.624 c 0,-13.806 11.193,-25 25.001,-25 v 0 c 13.806,0 25,11.194 25,25 v 0 c 0,13.807 -11.194,25 -25,25 v 0 c -13.808,0 -25.001,-11.193 -25.001,-25"
                   style="fill:url(#linearGradient10105);stroke:none"
                   id="path10107" />
              </g>
            </g>
          </g>
        </g>
      </g>
      <g
         id="g10109"
         style="display:inline">
        <g
           id="g10111"
           clip-path="url(#clipPath10115)">
          <g
             id="g10117"
             transform="translate(94.6816,29.624)">
            <path
               d="m 0,0 c 0,-13.807 -11.193,-25 -25,-25 -13.808,0 -25,11.193 -25,25 0,13.808 11.192,25 25,25 C -11.193,25 0,13.808 0,0 Z"
               style="fill:none;stroke:url(#linearGradient10123);stroke-width:4;stroke-linecap:butt;stroke-linejoin:miter;stroke-miterlimit:10;stroke-dasharray:none;stroke-opacity:1"
               id="path10125" />
          </g>
        </g>
      </g>
      <g
         id="g10127"
         style="display:inline">
        <g
           id="g10129">
          <g
             id="g10135">
            <g
               id="g10137">
              <path
                 d="M 47.36,99.525 C 44.039,85.813 34.019,46.086 25.973,13.118 v 0 l 0.117,-0.058 5.247,4.552 0.117,0.059 c 0.977,4.102 4.87,18.767 5.3,20.33 v 0 L 51.168,97.122 C 54.84,82.044 56.832,73.899 57.145,72.689 v 0 c 0.937,-3.906 4.101,-16.779 9.492,-38.614 v 0 c 0.664,-3.085 1.055,-4.629 1.172,-4.629 v 0 h 4.101 l 0.117,0.059 -5.507,22.735 -15.352,62.636 c -0.196,-0.703 -1.465,-5.82 -3.808,-15.351"
                 style="fill:url(#linearGradient10145);stroke:none"
                 id="path10147" />
            </g>
          </g>
        </g>
      </g>
    </g>
    <g
       id="g10224"
       inkscape:label="DestinationAres Banner_NoBG"
       transform="matrix(0.12375595,0,0,-0.12375595,6.0678953,212.03762)">
      <g
         id="g10226">
        <g
           id="g10228"
           clip-path="url(#clipPath10232)">
          <g
             id="g10234" />
          <g
             id="g10262"
             mask="url(#mask10250)">
            <g
               id="g10264"
               transform="translate(1146.8418)">
              <path
                 d="M 0,0 C -35.869,53.659 -96.997,89 -166.383,89 -235.773,89 -296.9,53.659 -332.768,0 Z"
                 style="fill:none;stroke:url(#linearGradient10274);stroke-width:4;stroke-linecap:butt;stroke-linejoin:miter;stroke-miterlimit:10;stroke-dasharray:none;stroke-opacity:1"
                 id="path10276" />
            </g>
          </g>
          <g
             id="g10278"
             transform="translate(94.2046,140.7227)">
            <path
               d="m 0,0 v -75.234 h 24.199 c 2.968,0 5.488,1.385 7.559,4.16 1.015,1.64 1.523,3.261 1.523,4.863 v 0.293 l -0.117,0.176 v 56.074 c 0,3.945 -1.797,6.875 -5.391,8.789 C 26.64,-0.293 24.844,0 22.383,0 Z m -4.102,4.102 h 28.008 c 4.023,0 7.48,-1.641 10.371,-4.922 0.859,-1.094 1.543,-2.188 2.051,-3.282 0.703,-1.914 1.055,-3.691 1.055,-5.332 0.078,0 0.117,-0.039 0.117,-0.117 v -56.426 c 0,-4.687 -2.168,-8.516 -6.504,-11.484 -2.266,-1.289 -4.551,-1.934 -6.855,-1.934 H -4.102 c -0.078,0 -0.117,0.039 -0.117,0.118 V 3.984 c 0,0.078 0.039,0.118 0.117,0.118"
               style="fill:#ffffff;fill-opacity:1;fill-rule:nonzero;stroke:none"
               id="path10280" />
          </g>
          <g
             id="g10282"
             transform="translate(157.856,144.7656)">
            <path
               d="m 0,0 h 41.484 c 0.079,0 0.118,-0.039 0.118,-0.117 v -3.985 c 0,-0.078 -0.039,-0.117 -0.118,-0.117 H 4.102 v -33.34 h 16.523 c 0.078,0 0.117,-0.039 0.117,-0.117 v -3.984 c 0,-0.039 -0.039,-0.059 -0.117,-0.059 H 4.102 v -37.5 h 37.382 c 0.079,0 0.118,-0.039 0.118,-0.117 v -3.984 c 0,-0.079 -0.039,-0.118 -0.118,-0.118 H 0 c -0.079,0 -0.117,0.039 -0.117,0.118 V -0.117 C -0.117,-0.039 -0.079,0 0,0"
               style="fill:#ffffff;fill-opacity:1;fill-rule:nonzero;stroke:none"
               id="path10284" />
          </g>
          <g
             id="g10286"
             transform="translate(237.6382,144.707)">
            <path
               d="m 0,0 h 13.711 c 4.531,0 8.065,-1.387 10.605,-4.16 1.289,-1.328 2.246,-2.754 2.871,-4.278 0.665,-1.757 0.997,-3.457 0.997,-5.097 0.078,0 0.117,-0.039 0.117,-0.117 v -5.039 c 0,-0.079 -0.039,-0.118 -0.117,-0.118 h -4.102 c -0.079,0 -0.117,0.039 -0.117,0.118 v 4.804 c 0,4.102 -1.837,7.071 -5.508,8.907 -1.134,0.546 -2.54,0.82 -4.219,0.82 H -0.117 c -2.775,0 -5.177,-1.25 -7.207,-3.75 -1.211,-1.719 -1.817,-3.477 -1.817,-5.274 v -17.578 c 0,-2.383 1.075,-4.59 3.223,-6.621 1.133,-1.015 2.499,-1.699 4.102,-2.051 l 1.464,-0.234 c 0.586,0.039 0.997,0.059 1.231,0.059 h 12.656 c 3.671,0 6.582,-0.801 8.731,-2.403 2.03,-1.523 3.339,-2.929 3.925,-4.218 0.507,-0.743 0.976,-1.758 1.407,-3.047 0.389,-1.486 0.586,-2.775 0.586,-3.868 0.078,0 0.117,-0.039 0.117,-0.117 v -16.699 c 0,-4.453 -1.973,-8.144 -5.918,-11.074 -2.344,-1.563 -4.825,-2.344 -7.442,-2.344 H 0 c -4.258,0 -7.872,1.875 -10.84,5.625 -1.68,2.461 -2.519,5.059 -2.519,7.793 v 5.215 c 0,0.078 0.038,0.117 0.117,0.117 h 3.984 c 0.078,0 0.117,-0.039 0.117,-0.117 v -5.449 c 0,-2.775 1.25,-5.177 3.75,-7.207 1.719,-1.211 3.477,-1.817 5.274,-1.817 h 15.176 c 2.773,0 5.175,1.25 7.207,3.75 1.21,1.719 1.816,3.477 1.816,5.274 v 0.293 l -0.117,0.175 v 16.231 c 0,3.788 -1.603,6.641 -4.805,8.555 -1.368,0.781 -3.027,1.171 -4.98,1.171 H 0.703 c -0.234,0 -0.508,-0.019 -0.82,-0.058 -2.852,0 -5.684,1.055 -8.496,3.164 -3.164,2.969 -4.746,6.367 -4.746,10.195 v 17.051 c 0,4.453 1.971,8.145 5.918,11.074 C -5.098,-0.781 -2.617,0 0,0"
               style="fill:#ffffff;fill-opacity:1;fill-rule:nonzero;stroke:none"
               id="path10288" />
          </g>
          <g
             id="g10290"
             transform="translate(290.356,144.707)">
            <path
               d="m 0,0 h 41.426 c 0.078,0 0.117,-0.039 0.117,-0.117 v -3.809 c 0,-0.078 -0.039,-0.117 -0.117,-0.117 H 22.793 v -79.219 c 0,-0.079 -0.039,-0.117 -0.117,-0.117 H 18.75 c -0.079,0 -0.117,0.038 -0.117,0.117 V -4.043 H 0 c -0.079,0 -0.117,0.039 -0.117,0.117 v 3.809 C -0.117,-0.039 -0.079,0 0,0"
               style="fill:#ffffff;fill-opacity:1;fill-rule:nonzero;stroke:none"
               id="path10292" />
          </g>
          <g
             id="g10294"
             transform="translate(357.7729,144.8828)">
            <path
               d="m 0,0 h 20.918 c 0.078,0 0.117,-0.039 0.117,-0.117 v -3.985 c 0,-0.078 -0.039,-0.117 -0.117,-0.117 h -8.203 v -75.117 h 8.203 c 0.078,0 0.117,-0.039 0.117,-0.117 v -3.985 c 0,-0.079 -0.039,-0.117 -0.117,-0.117 H 0.234 c -0.079,0 -0.117,0.038 -0.117,0.117 v 3.985 c 0,0.078 0.038,0.117 0.117,0.117 H 8.496 V -4.219 H 0 c -0.079,0 -0.117,0.039 -0.117,0.117 v 3.985 C -0.117,-0.039 -0.079,0 0,0"
               style="fill:#ffffff;fill-opacity:1;fill-rule:nonzero;stroke:none"
               id="path10296" />
          </g>
          <g
             id="g10298"
             transform="translate(404.895,153.6133)">
            <path
               d="m 0,0 h 0.117 l 23.145,-51.563 c 9.218,-20.39 13.847,-30.683 13.886,-30.878 h 0.059 v 72.48 c 0.038,0.078 0.078,0.117 0.117,0.117 h 3.985 c 0.038,-0.039 0.058,-0.078 0.058,-0.117 v -82.676 -9.023 H 41.25 c 0,0.079 -7.969,17.773 -23.906,53.086 C 8.789,-29.629 4.433,-19.941 4.277,-19.512 H 4.219 v -72.832 c 0,-0.078 -0.039,-0.117 -0.117,-0.117 H 0.234 c -0.079,0 -0.117,0.039 -0.117,0.117 v 75.528 C 0.038,-6.582 0,-0.977 0,0"
               style="fill:#ffffff;fill-opacity:1;fill-rule:nonzero;stroke:none"
               id="path10300" />
          </g>
          <g
             id="g10302"
             transform="translate(508.6421,84.1211)">
            <path
               d="M 0,0 5.508,-22.734 5.391,-22.793 H 1.289 c -0.117,0 -0.508,1.543 -1.172,4.629 -5.39,21.835 -8.555,34.707 -9.492,38.613 -0.313,1.211 -2.306,9.356 -5.977,24.434 l -14.414,-59.121 c -0.43,-1.563 -1.133,-4.395 -2.109,-8.496 l -0.117,-0.059 h -4.102 l -0.117,0.059 c 8.047,32.967 13.731,56.308 17.051,70.019 2.344,9.531 3.612,14.649 3.808,15.352 z"
               style="fill:#ffffff;fill-opacity:1;fill-rule:nonzero;stroke:none"
               id="path10304" />
          </g>
          <g
             id="g10306"
             transform="translate(529.981,144.707)">
            <path
               d="m 0,0 h 41.426 c 0.078,0 0.117,-0.039 0.117,-0.117 v -3.809 c 0,-0.078 -0.039,-0.117 -0.117,-0.117 H 22.793 v -79.219 c 0,-0.079 -0.039,-0.117 -0.117,-0.117 H 18.75 c -0.079,0 -0.117,0.038 -0.117,0.117 V -4.043 H 0 c -0.079,0 -0.117,0.039 -0.117,0.117 v 3.809 C -0.117,-0.039 -0.079,0 0,0"
               style="fill:#ffffff;fill-opacity:1;fill-rule:nonzero;stroke:none"
               id="path10308" />
          </g>
          <g
             id="g10310"
             transform="translate(597.4707,144.6484)">
            <path
               d="m 0,0 h 3.926 c 0.078,0 0.117,-0.039 0.117,-0.117 v -83.086 c 0,-0.079 -0.039,-0.117 -0.117,-0.117 H 0 c -0.08,0 -0.117,0.038 -0.117,0.117 V -0.117 C -0.117,-0.039 -0.08,0 0,0"
               style="fill:#ffffff;fill-opacity:1;fill-rule:nonzero;stroke:none"
               id="path10312" />
          </g>
          <g
             id="g10314"
             transform="translate(631.5605,131.4062)">
            <path
               d="m 0,0 v -0.293 l -0.117,-0.176 v -55.429 c 0,-4.454 1.953,-7.598 5.859,-9.434 1.133,-0.469 2.305,-0.703 3.516,-0.703 h 13.828 c 3.281,0 5.762,0.879 7.441,2.637 1.993,1.795 2.989,4.315 2.989,7.558 v 54.844 c 0,4.648 -2.051,7.851 -6.153,9.609 -1.015,0.391 -2.539,0.586 -4.57,0.586 H 10.488 C 7.48,9.199 5.215,8.535 3.691,7.207 1.23,5.176 0,2.773 0,0 m 9.375,13.242 h 14.707 c 4.688,0 8.535,-2.148 11.543,-6.445 1.289,-2.305 1.934,-4.609 1.934,-6.914 v -56.602 c 0,-4.101 -1.778,-7.637 -5.332,-10.605 -2.5,-1.837 -5.176,-2.754 -8.028,-2.754 H 9.258 c -4.414,0 -8.125,1.992 -11.133,5.976 -1.484,2.382 -2.227,4.805 -2.227,7.266 v 56.719 c 0,4.297 1.934,7.949 5.801,10.957 2.461,1.601 5.02,2.402 7.676,2.402"
               style="fill:#ffffff;fill-opacity:1;fill-rule:nonzero;stroke:none"
               id="path10316" />
          </g>
          <g
             id="g10318"
             transform="translate(695.4102,153.6133)">
            <path
               d="m 0,0 h 0.117 l 23.145,-51.563 c 9.218,-20.39 13.847,-30.683 13.886,-30.878 h 0.059 v 72.48 c 0.039,0.078 0.078,0.117 0.117,0.117 h 3.985 c 0.039,-0.039 0.058,-0.078 0.058,-0.117 v -82.676 -9.023 H 41.25 c 0,0.079 -7.969,17.773 -23.906,53.086 -8.555,18.945 -12.91,28.633 -13.067,29.062 H 4.219 v -72.832 c 0,-0.078 -0.039,-0.117 -0.117,-0.117 H 0.234 c -0.078,0 -0.117,0.039 -0.117,0.117 v 75.528 C 0.039,-6.582 0,-0.977 0,0"
               style="fill:#ffffff;fill-opacity:1;fill-rule:nonzero;stroke:none"
               id="path10320" />
          </g>
        </g>
      </g>
      <g
         id="g10322">
        <g
           id="g10324">
          <g
             id="g10330">
            <g
               id="g10332">
              <path
                 d="M 877.016,131.406 C 873.696,117.696 863.676,77.968 855.629,45 v 0 l 0.117,-0.059 5.247,4.554 0.117,0.058 c 0.977,4.101 4.87,18.767 5.3,20.33 v 0 l 14.415,59.121 c 3.671,-15.078 5.663,-23.222 5.976,-24.434 v 0 c 0.937,-3.906 4.101,-16.778 9.492,-38.613 v 0 c 0.664,-3.086 1.055,-4.629 1.172,-4.629 v 0 h 4.101 l 0.118,0.058 -5.508,22.735 -15.351,62.637 c -0.196,-0.703 -1.466,-5.821 -3.809,-15.352"
                 style="fill:url(#linearGradient10340-3);stroke:none"
                 id="path10342" />
            </g>
          </g>
        </g>
      </g>
      <g
         id="g10344">
        <g
           id="g10346"
           clip-path="url(#clipPath10350)">
          <g
             id="g10352"
             transform="translate(927.7266,144.8828)">
            <path
               d="m 0,0 h 28.242 c 4.375,0 8.067,-1.992 11.074,-5.977 1.563,-2.461 2.344,-5 2.344,-7.617 v -16.875 c 0,-4.179 -1.894,-7.793 -5.683,-10.84 -2.618,-1.718 -5.254,-2.578 -7.911,-2.578 l -0.644,0.059 H 16.055 l 25.547,-39.61 v -0.117 h -4.864 c -0.195,0.156 -2.558,3.809 -7.09,10.957 L 8.555,-39.727 h 0.117 18.164 c 0.312,0 0.703,0.02 1.172,0.059 l 0.117,-0.059 c 2.305,0 4.434,0.879 6.387,2.637 1.953,1.992 2.929,4.16 2.929,6.504 v 17.344 c 0,2.656 -1.23,5.019 -3.691,7.09 -1.758,1.289 -3.516,1.933 -5.273,1.933 H 4.102 v -79.219 c 0,-0.079 -0.04,-0.117 -0.118,-0.117 H 0 c -0.078,0 -0.117,0.038 -0.117,0.117 V -0.117 C -0.117,-0.039 -0.078,0 0,0"
               style="fill:#ffffff;fill-opacity:1;fill-rule:nonzero;stroke:none"
               id="path10354" />
          </g>
          <g
             id="g10356"
             transform="translate(995.4434,144.7656)">
            <path
               d="m 0,0 h 41.484 c 0.079,0 0.118,-0.039 0.118,-0.117 v -3.985 c 0,-0.078 -0.039,-0.117 -0.118,-0.117 H 4.102 v -33.34 h 16.523 c 0.078,0 0.117,-0.039 0.117,-0.117 v -3.984 c 0,-0.039 -0.039,-0.059 -0.117,-0.059 H 4.102 v -37.5 h 37.382 c 0.079,0 0.118,-0.039 0.118,-0.117 v -3.984 c 0,-0.079 -0.039,-0.118 -0.118,-0.118 H 0 c -0.078,0 -0.117,0.039 -0.117,0.118 V -0.117 C -0.117,-0.039 -0.078,0 0,0"
               style="fill:#ffffff;fill-opacity:1;fill-rule:nonzero;stroke:none"
               id="path10358" />
          </g>
          <g
             id="g10360"
             transform="translate(1075.2266,144.707)">
            <path
               d="m 0,0 h 13.711 c 4.531,0 8.064,-1.387 10.605,-4.16 1.289,-1.328 2.246,-2.754 2.871,-4.278 0.665,-1.757 0.997,-3.457 0.997,-5.097 0.078,0 0.117,-0.039 0.117,-0.117 v -5.039 c 0,-0.079 -0.039,-0.118 -0.117,-0.118 h -4.102 c -0.08,0 -0.117,0.039 -0.117,0.118 v 4.804 c 0,4.102 -1.838,7.071 -5.508,8.907 -1.135,0.546 -2.541,0.82 -4.219,0.82 H -0.117 c -2.776,0 -5.178,-1.25 -7.207,-3.75 -1.211,-1.719 -1.817,-3.477 -1.817,-5.274 v -17.578 c 0,-2.383 1.075,-4.59 3.223,-6.621 1.133,-1.015 2.498,-1.699 4.102,-2.051 l 1.464,-0.234 c 0.586,0.039 0.997,0.059 1.231,0.059 h 12.656 c 3.67,0 6.582,-0.801 8.731,-2.403 2.029,-1.523 3.339,-2.929 3.925,-4.218 0.506,-0.743 0.975,-1.758 1.407,-3.047 0.388,-1.486 0.586,-2.775 0.586,-3.868 0.078,0 0.117,-0.039 0.117,-0.117 v -16.699 c 0,-4.453 -1.973,-8.144 -5.918,-11.074 -2.344,-1.563 -4.826,-2.344 -7.442,-2.344 H 0 c -4.258,0 -7.873,1.875 -10.84,5.625 -1.68,2.461 -2.519,5.059 -2.519,7.793 v 5.215 c 0,0.078 0.037,0.117 0.117,0.117 h 3.984 c 0.078,0 0.117,-0.039 0.117,-0.117 v -5.449 c 0,-2.775 1.25,-5.177 3.75,-7.207 1.719,-1.211 3.477,-1.817 5.274,-1.817 h 15.176 c 2.773,0 5.175,1.25 7.207,3.75 1.209,1.719 1.816,3.477 1.816,5.274 v 0.293 l -0.117,0.175 v 16.231 c 0,3.788 -1.604,6.641 -4.805,8.555 -1.369,0.781 -3.027,1.171 -4.98,1.171 H 0.703 c -0.234,0 -0.508,-0.019 -0.82,-0.058 -2.852,0 -5.684,1.055 -8.496,3.164 -3.164,2.969 -4.746,6.367 -4.746,10.195 v 17.051 c 0,4.453 1.97,8.145 5.918,11.074 C -5.098,-0.781 -2.617,0 0,0"
               style="fill:#ffffff;fill-opacity:1;fill-rule:nonzero;stroke:none"
               id="path10362" />
          </g>
        </g>
      </g>
    </g>
  </g>
</svg>
