<?xml version="1.0" encoding="UTF-8" standalone="no"?>
<!-- Created with Inkscape (http://www.inkscape.org/) -->

<svg
   version="1.1"
   id="svg824"
   xml:space="preserve"
   width="133.33333"
   height="160"
   viewBox="0 0 133.33333 160"
   sodipodi:docname="DestinationAres Icon.svg"
   inkscape:export-filename="C:\Users\micro\Documents\Projects\destination-ares\Art\da_logo.png"
   inkscape:export-xdpi="299.98074"
   inkscape:export-ydpi="299.98074"
   inkscape:version="1.1.1 (3bf5ae0d25, 2021-09-20)"
   xmlns:inkscape="http://www.inkscape.org/namespaces/inkscape"
   xmlns:sodipodi="http://sodipodi.sourceforge.net/DTD/sodipodi-0.dtd"
   xmlns="http://www.w3.org/2000/svg"
   xmlns:svg="http://www.w3.org/2000/svg"><defs
     id="defs828"><clipPath
       clipPathUnits="userSpaceOnUse"
       id="clipPath840"><path
         d="M 0,120 H 100 V 0 H 0 Z"
         id="path838" /></clipPath><clipPath
       clipPathUnits="userSpaceOnUse"
       id="clipPath850"><path
         d="M 0,0 H 100 V 120 H 0 Z"
         id="path848" /></clipPath><radialGradient
       fx="0"
       fy="0"
       cx="0"
       cy="0"
       r="1"
       gradientUnits="userSpaceOnUse"
       gradientTransform="matrix(72.567841,0,0,-78.642685,55,59.75)"
       spreadMethod="pad"
       id="radialGradient864"><stop
         style="stop-opacity:1;stop-color:#ffffff"
         offset="0"
         id="stop860" /><stop
         style="stop-opacity:0;stop-color:#ffffff"
         offset="1"
         id="stop862" /></radialGradient><mask
       maskUnits="userSpaceOnUse"
       x="0"
       y="0"
       width="1"
       height="1"
       id="mask866"><g
         id="g876"><g
           id="g874"><g
             id="g872"><g
               id="g870"><path
                 d="M -32768,32767 H 32767 V -32768 H -32768 Z"
                 style="fill:url(#radialGradient864);stroke:none"
                 id="path868" /></g></g></g></g></mask><radialGradient
       fx="0"
       fy="0"
       cx="0"
       cy="0"
       r="1"
       gradientUnits="userSpaceOnUse"
       gradientTransform="matrix(72.567841,0,0,-78.642685,55,59.75)"
       spreadMethod="pad"
       id="radialGradient886"><stop
         style="stop-opacity:1;stop-color:#00080c"
         offset="0"
         id="stop882" /><stop
         style="stop-opacity:1;stop-color:#00080c"
         offset="1"
         id="stop884" /></radialGradient><clipPath
       clipPathUnits="userSpaceOnUse"
       id="clipPath896"><path
         d="m 44.681,29.624 c 0,-13.806 11.193,-25 25.001,-25 v 0 c 13.806,0 25,11.194 25,25 v 0 c 0,13.807 -11.194,25 -25,25 v 0 c -13.808,0 -25.001,-11.193 -25.001,-25"
         id="path894" /></clipPath><linearGradient
       x1="0"
       y1="0"
       x2="1"
       y2="0"
       gradientUnits="userSpaceOnUse"
       gradientTransform="matrix(-2.2e-6,50,50,2.2e-6,69.681641,4.6240234)"
       spreadMethod="pad"
       id="linearGradient912"><stop
         style="stop-opacity:0;stop-color:#ffffff"
         offset="0"
         id="stop906" /><stop
         style="stop-opacity:0;stop-color:#ffffff"
         offset="0.76230771"
         id="stop908" /><stop
         style="stop-opacity:1;stop-color:#ffffff"
         offset="1"
         id="stop910" /></linearGradient><mask
       maskUnits="userSpaceOnUse"
       x="0"
       y="0"
       width="1"
       height="1"
       id="mask914"><g
         id="g924"><g
           id="g922"><g
             id="g920"><g
               id="g918"><path
                 d="M -32768,32767 H 32767 V -32768 H -32768 Z"
                 style="fill:url(#linearGradient912);stroke:none"
                 id="path916" /></g></g></g></g></mask><linearGradient
       x1="0"
       y1="0"
       x2="1"
       y2="0"
       gradientUnits="userSpaceOnUse"
       gradientTransform="matrix(-2.2e-6,50,50,2.2e-6,69.681641,4.6240234)"
       spreadMethod="pad"
       id="linearGradient936"><stop
         style="stop-opacity:1;stop-color:#f13200"
         offset="0"
         id="stop930" /><stop
         style="stop-opacity:1;stop-color:#f13200"
         offset="0.76230771"
         id="stop932" /><stop
         style="stop-opacity:1;stop-color:#f13200"
         offset="1"
         id="stop934" /></linearGradient><clipPath
       clipPathUnits="userSpaceOnUse"
       id="clipPath946"><path
         d="M 0,120 H 100 V 0 H 0 Z"
         id="path944" /></clipPath><linearGradient
       x1="0"
       y1="0"
       x2="1"
       y2="0"
       gradientUnits="userSpaceOnUse"
       gradientTransform="matrix(-2.36042e-6,54,-54,-2.36042e-6,-25,93)"
       spreadMethod="pad"
       id="linearGradient954"><stop
         style="stop-opacity:1;stop-color:#ffffff"
         offset="0"
         id="stop950" /><stop
         style="stop-opacity:1;stop-color:#ffffff"
         offset="1"
         id="stop952" /></linearGradient><linearGradient
       x1="0"
       y1="0"
       x2="1"
       y2="0"
       gradientUnits="userSpaceOnUse"
       gradientTransform="matrix(-4.5e-6,-101.81641,-101.81641,4.5e-6,49,114.87598)"
       spreadMethod="pad"
       id="linearGradient976"><stop
         style="stop-opacity:1;stop-color:#ffffff"
         offset="0"
         id="stop970" /><stop
         style="stop-opacity:1;stop-color:#ffffff"
         offset="0.79908746"
         id="stop972" /><stop
         style="stop-opacity:1;stop-color:#f13200"
         offset="1"
         id="stop974" /></linearGradient></defs><sodipodi:namedview
     id="namedview826"
     pagecolor="#505050"
     bordercolor="#eeeeee"
     borderopacity="1"
     inkscape:pageshadow="0"
     inkscape:pageopacity="0"
     inkscape:pagecheckerboard="0"
     showgrid="false"
     inkscape:zoom="2.415625"
     inkscape:cx="52.3674"
     inkscape:cy="103.69987"
     inkscape:window-width="1920"
     inkscape:window-height="991"
     inkscape:window-x="-9"
     inkscape:window-y="-9"
     inkscape:window-maximized="1"
     inkscape:current-layer="g830" /><g
     id="g830"
     inkscape:groupmode="layer"
     inkscape:label="DestinationAres Icon"
     transform="matrix(1.3333333,0,0,-1.3333333,0,160)"><ellipse
       style="fill:#000000;stroke-width:1.4145;-inkscape-stroke:none;stop-color:#000000"
       id="path1082"
       cx="57.956665"
       cy="-53.043335"
       transform="scale(1,-1)"
       rx="84.605438"
       ry="88.952141" /><path
       d="M 0,0 H 100 V 120 H 0 Z"
       style="display:none;fill:#000000;fill-opacity:1;fill-rule:nonzero;stroke:none"
       id="path832" /><g
       id="g834"><g
         id="g836"
         clip-path="url(#clipPath840)"><path
           d="m 154.5,-39.75 h -200 v 200 h 200 z"
           style="fill:none;stroke:#000000;stroke-width:1;stroke-linecap:butt;stroke-linejoin:miter;stroke-miterlimit:10;stroke-dasharray:none;stroke-opacity:1"
           id="path842" /></g></g><g
       id="g844"><g
         id="g846"
         clip-path="url(#clipPath850)"><g
           id="g852"><g
             id="g854" /><g
             id="g878"
             mask="url(#mask866)"><g
               id="g880"><path
                 d="M 0,0 H 100 V 120 H 0 Z"
                 style="fill:url(#radialGradient886);stroke:none"
                 id="path888" /></g></g></g></g></g><g
       id="g890"><g
         id="g892"
         clip-path="url(#clipPath896)"><g
           id="g898"><g
             id="g900" /><g
             id="g926"
             mask="url(#mask914)"><g
               id="g928"><path
                 d="m 44.681,29.624 c 0,-13.806 11.193,-25 25.001,-25 v 0 c 13.806,0 25,11.194 25,25 v 0 c 0,13.807 -11.194,25 -25,25 v 0 c -13.808,0 -25.001,-11.193 -25.001,-25"
                 style="fill:url(#linearGradient936);stroke:none"
                 id="path938" /></g></g></g></g></g><g
       id="g940"><g
         id="g942"
         clip-path="url(#clipPath946)"><g
           id="g948"
           transform="translate(94.6816,29.624)"><path
             d="m 0,0 c 0,-13.807 -11.193,-25 -25,-25 -13.808,0 -25,11.193 -25,25 0,13.808 11.192,25 25,25 C -11.193,25 0,13.808 0,0 Z"
             style="fill:none;stroke:url(#linearGradient954);stroke-width:4;stroke-linecap:butt;stroke-linejoin:miter;stroke-miterlimit:10;stroke-dasharray:none;stroke-opacity:1"
             id="path956" /></g></g></g><g
       id="g958"
       style="display:inline"><g
         id="g960"><g
           id="g966"><g
             id="g968"><path
               d="M 47.36,99.525 C 44.039,85.813 34.019,46.086 25.973,13.118 v 0 l 0.117,-0.058 5.247,4.552 0.117,0.059 c 0.977,4.102 4.87,18.767 5.3,20.33 v 0 L 51.168,97.122 C 54.84,82.044 56.832,73.899 57.145,72.689 v 0 c 0.937,-3.906 4.101,-16.779 9.492,-38.614 v 0 c 0.664,-3.085 1.055,-4.629 1.172,-4.629 v 0 h 4.101 l 0.117,0.059 -5.507,22.735 -15.352,62.636 c -0.196,-0.703 -1.465,-5.82 -3.808,-15.351"
               style="fill:url(#linearGradient976);stroke:none"
               id="path978" /></g></g></g></g></g></svg>
